<svg xmlns="http://www.w3.org/2000/svg" xmlns:xlink="http://www.w3.org/1999/xlink" width="16" height="14" viewBox="0 0 16 14">
    <defs>
        <path id="44hs9swv2a" d="M0 0L11 0 11 6.666 0 6.666z"/>
        <path id="h3p2mqkvjc" d="M0.54 0.208L3.69 0.208 3.69 5.922 0.54 5.922z"/>
    </defs>
    <g fill="none" fill-rule="evenodd">
        <g>
            <g>
                <g>
                    <path fill="#B1B1B8" d="M5.967 13.18c.456.355 1.15.055 1.15-.497V11.3h5.951C14.685 11.3 16 10.19 16 8.823v-1.45c0-.39-.375-.706-.837-.706-.461 0-.836.317-.836.707v1.45c0 .585-.564 1.062-1.259 1.062h-5.95V8.45c0-.552-.695-.852-1.15-.497L3.25 10.07c-.333.26-.333.735 0 .994l2.717 2.117z" transform="translate(-75 -123) translate(68 115) translate(7 8)"/>
                    <g transform="translate(-75 -123) translate(68 115) translate(7 8)">
                        <mask id="52kcpp9yib" fill="#fff">
                            <use xlink:href="#44hs9swv2a"/>
                        </mask>
                        <path fill="#B1B1B8" d="M6.882 4.885c0 .55.695.851 1.15.497l2.718-2.117c.333-.26.333-.735 0-.995L8.032.153C7.577-.202 6.882.1 6.882.651v1.382h-3.95C1.314 2.033 0 3.145 0 4.51V5.96c0 .39.375.707.837.707.462 0 .836-.316.836-.707V4.51c0-.587.565-1.064 1.258-1.064h3.95v1.438z" mask="url(#52kcpp9yib)"/>
                    </g>
                    <g transform="translate(-75 -123) translate(68 115) translate(7 8) translate(11)">
                        <mask id="ajp78hs4bd" fill="#fff">
                            <use xlink:href="#h3p2mqkvjc"/>
                        </mask>
                        <path fill="#B1B1B8" d="M1.429 1.834l.952-.284v3.43c0 .153.02.277.062.371.04.096.1.17.176.226.076.054.17.09.281.11.111.018.236.027.376.027s.278-.011.414-.032c.138-.021.24-.038.31-.05V.851C4 .59 3.921.382 3.762.23 3.604.076 3.388 0 3.114 0h-.352L1.695.349C1.231.495 1 .752 1 1.119c0 .195.048.349.143.458.095.11.19.196.286.257" mask="url(#ajp78hs4bd)"/>
                    </g>
                </g>
            </g>
        </g>
    </g>
</svg>
